<svg xmlns="http://www.w3.org/2000/svg" xmlns:xlink="http://www.w3.org/1999/xlink" preserveAspectRatio="xMidYMid" width="50" height="51" viewBox="0 0 50 51">
  <defs>
    <style>
      .cls-1 {
        fill: #5c598e;
        stroke: #706cab;
        stroke-linejoin: round;
        stroke-width: 3px;
      }

      .cls-2 {
        fill: #1a183f;
        fill-rule: evenodd;
      }
    </style>
  </defs>
  <g>
    <circle cx="25" cy="25.14" r="18.5" class="cls-1"/>
    <path d="M27.648,32.338 C26.890,32.215 26.873,30.085 26.873,30.085 C26.873,30.085 29.100,27.833 29.586,24.804 C30.891,24.804 31.698,21.584 30.392,20.451 C30.447,19.258 32.071,11.088 23.849,11.088 C15.627,11.088 17.251,19.258 17.306,20.451 C16.000,21.584 16.806,24.804 18.112,24.804 C18.597,27.833 20.825,30.085 20.825,30.085 C20.825,30.085 20.808,32.215 20.049,32.338 C17.608,32.735 7.668,38.495 7.668,43.000 L23.849,43.000 L40.030,43.000 C40.030,38.495 30.090,32.735 27.648,32.338 Z" class="cls-2"/>
  </g>
</svg>
